<svg width="36" height="34" viewBox="0 0 36 34" fill="none" xmlns="http://www.w3.org/2000/svg">
<path d="M33 21.25V12.75C33 5.66671 30 2.83337 22.5 2.83337H13.5C6 2.83337 3 5.66671 3 12.75V21.25C3 28.3334 6 31.1667 13.5 31.1667H22.5C30 31.1667 33 28.3334 33 21.25Z" stroke="#171717" stroke-width="1.5" stroke-linecap="round" stroke-linejoin="round"/>
<path d="M14.43 24.5082C16.1863 24.5082 17.61 23.1636 17.61 21.5049C17.61 19.8462 16.1863 18.5016 14.43 18.5016C12.6737 18.5016 11.25 19.8462 11.25 21.5049C11.25 23.1636 12.6737 24.5082 14.43 24.5082Z" stroke="#171717" stroke-width="1.5" stroke-linecap="round" stroke-linejoin="round"/>
<path d="M17.61 21.5049V11.0074" stroke="#171717" stroke-width="1.5" stroke-linecap="round" stroke-linejoin="round"/>
<path d="M19.695 9.59085L23.205 10.6958C24.06 10.965 24.75 11.8716 24.75 12.7216V13.6C24.75 14.7475 23.805 15.385 22.665 15.0166L19.155 13.9117C18.3 13.6425 17.61 12.7358 17.61 11.8858V11.0075C17.61 9.87418 18.54 9.22251 19.695 9.59085Z" stroke="#171717" stroke-width="1.5" stroke-linecap="round" stroke-linejoin="round"/>
</svg>
