<svg width="33" height="34" viewBox="0 0 33 34" fill="none" xmlns="http://www.w3.org/2000/svg">
<path d="M12.375 31.1667H20.625C27.5 31.1667 30.25 28.3334 30.25 21.25V12.75C30.25 5.66671 27.5 2.83337 20.625 2.83337H12.375C5.5 2.83337 2.75 5.66671 2.75 12.75V21.25C2.75 28.3334 5.5 31.1667 12.375 31.1667Z" stroke="#171717" stroke-width="1.5" stroke-linecap="round" stroke-linejoin="round"/>
<path d="M12.375 14.1667C13.8938 14.1667 15.125 12.8981 15.125 11.3333C15.125 9.76853 13.8938 8.5 12.375 8.5C10.8562 8.5 9.625 9.76853 9.625 11.3333C9.625 12.8981 10.8562 14.1667 12.375 14.1667Z" stroke="#171717" stroke-width="1.5" stroke-linecap="round" stroke-linejoin="round"/>
<path d="M3.67126 26.8458L10.45 22.1567C11.5363 21.4058 13.1038 21.4908 14.08 22.355L14.5338 22.7658C15.6063 23.715 17.3388 23.715 18.4113 22.7658L24.1313 17.7083C25.2038 16.7592 26.9363 16.7592 28.0088 17.7083L30.25 19.6917" stroke="#171717" stroke-width="1.5" stroke-linecap="round" stroke-linejoin="round"/>
</svg>
