<svg width="27" height="27" viewBox="0 0 27 27" fill="none" xmlns="http://www.w3.org/2000/svg">
<path d="M20.25 8.055C20.1825 8.04375 20.1037 8.04375 20.0362 8.055C18.4837 7.99875 17.2462 6.7275 17.2462 5.1525C17.2462 3.54375 18.54 2.25 20.1487 2.25C21.7575 2.25 23.0512 3.555 23.0512 5.1525C23.04 6.7275 21.8025 7.99875 20.25 8.055Z" stroke="#171717" stroke-width="1.5" stroke-linecap="round" stroke-linejoin="round"/>
<path d="M19.0911 16.2449C20.6324 16.5037 22.3311 16.2337 23.5236 15.4349C25.1099 14.3774 25.1099 12.6449 23.5236 11.5874C22.3199 10.7887 20.5986 10.5187 19.0574 10.7887" stroke="#171717" stroke-width="1.5" stroke-linecap="round" stroke-linejoin="round"/>
<path d="M6.71629 8.055C6.78379 8.04375 6.86254 8.04375 6.93004 8.055C8.48254 7.99875 9.72004 6.7275 9.72004 5.1525C9.72004 3.54375 8.42629 2.25 6.81754 2.25C5.20879 2.25 3.91504 3.555 3.91504 5.1525C3.92629 6.7275 5.16379 7.99875 6.71629 8.055Z" stroke="#171717" stroke-width="1.5" stroke-linecap="round" stroke-linejoin="round"/>
<path d="M7.87487 16.2449C6.33362 16.5037 4.63487 16.2337 3.44237 15.4349C1.85612 14.3774 1.85612 12.6449 3.44237 11.5874C4.64612 10.7887 6.36737 10.5187 7.90862 10.7887" stroke="#171717" stroke-width="1.5" stroke-linecap="round" stroke-linejoin="round"/>
<path d="M13.5 16.4587C13.4325 16.4474 13.3537 16.4474 13.2862 16.4587C11.7337 16.4024 10.4962 15.1312 10.4962 13.5562C10.4962 11.9474 11.79 10.6537 13.3987 10.6537C15.0075 10.6537 16.3012 11.9587 16.3012 13.5562C16.29 15.1312 15.0525 16.4137 13.5 16.4587Z" stroke="#171717" stroke-width="1.5" stroke-linecap="round" stroke-linejoin="round"/>
<path d="M10.2262 20.0023C8.63994 21.0598 8.63994 22.7923 10.2262 23.8498C12.0262 25.0535 14.9737 25.0535 16.7737 23.8498C18.3599 22.7923 18.3599 21.0598 16.7737 20.0023C14.9849 18.8098 12.0262 18.8098 10.2262 20.0023Z" stroke="#171717" stroke-width="1.5" stroke-linecap="round" stroke-linejoin="round"/>
</svg>
