<svg width="116" height="23" viewBox="0 0 116 23" fill="none" xmlns="http://www.w3.org/2000/svg">
<path d="M9.07422 0.9375V18H5.57031V0.9375H9.07422ZM14.3242 0.9375V3.69141H0.402344V0.9375H14.3242ZM18.6719 8.08594V18H15.2969V5.32031H18.4727L18.6719 8.08594ZM22.4922 5.23828L22.4336 8.36719C22.2695 8.34375 22.0703 8.32422 21.8359 8.30859C21.6094 8.28516 21.4023 8.27344 21.2148 8.27344C20.7383 8.27344 20.3242 8.33594 19.9727 8.46094C19.6289 8.57812 19.3398 8.75391 19.1055 8.98828C18.8789 9.22266 18.707 9.50781 18.5898 9.84375C18.4805 10.1797 18.418 10.5625 18.4023 10.9922L17.7227 10.7812C17.7227 9.96094 17.8047 9.20703 17.9688 8.51953C18.1328 7.82422 18.3711 7.21875 18.6836 6.70312C19.0039 6.1875 19.3945 5.78906 19.8555 5.50781C20.3164 5.22656 20.8438 5.08594 21.4375 5.08594C21.625 5.08594 21.8164 5.10156 22.0117 5.13281C22.207 5.15625 22.3672 5.19141 22.4922 5.23828ZM34.7266 7.75781V22.875H31.3516V5.32031H34.4805L34.7266 7.75781ZM42.7539 11.5195V11.7656C42.7539 12.6875 42.6445 13.543 42.4258 14.332C42.2148 15.1211 41.9023 15.8086 41.4883 16.3945C41.0742 16.9727 40.5586 17.4258 39.9414 17.7539C39.332 18.0742 38.6289 18.2344 37.832 18.2344C37.0586 18.2344 36.3867 18.0781 35.8164 17.7656C35.2461 17.4531 34.7656 17.0156 34.375 16.4531C33.9922 15.8828 33.6836 15.2227 33.4492 14.4727C33.2148 13.7227 33.0352 12.918 32.9102 12.0586V11.4141C33.0352 10.4922 33.2148 9.64844 33.4492 8.88281C33.6836 8.10938 33.9922 7.44141 34.375 6.87891C34.7656 6.30859 35.2422 5.86719 35.8047 5.55469C36.375 5.24219 37.043 5.08594 37.8086 5.08594C38.6133 5.08594 39.3203 5.23828 39.9297 5.54297C40.5469 5.84766 41.0625 6.28516 41.4766 6.85547C41.8984 7.42578 42.2148 8.10547 42.4258 8.89453C42.6445 9.68359 42.7539 10.5586 42.7539 11.5195ZM39.3672 11.7656V11.5195C39.3672 10.9805 39.3203 10.4844 39.2266 10.0312C39.1406 9.57031 39 9.16797 38.8047 8.82422C38.6172 8.48047 38.3672 8.21484 38.0547 8.02734C37.75 7.83203 37.3789 7.73438 36.9414 7.73438C36.4805 7.73438 36.0859 7.80859 35.7578 7.95703C35.4375 8.10547 35.1758 8.32031 34.9727 8.60156C34.7695 8.88281 34.6172 9.21875 34.5156 9.60938C34.4141 10 34.3516 10.4414 34.3281 10.9336V12.5625C34.3672 13.1406 34.4766 13.6602 34.6562 14.1211C34.8359 14.5742 35.1133 14.9336 35.4883 15.1992C35.8633 15.4648 36.3555 15.5977 36.9648 15.5977C37.4102 15.5977 37.7852 15.5 38.0898 15.3047C38.3945 15.1016 38.6406 14.8242 38.8281 14.4727C39.0234 14.1211 39.1602 13.7148 39.2383 13.2539C39.3242 12.793 39.3672 12.2969 39.3672 11.7656ZM58.5859 9.08203V15.8438C58.3203 16.1641 57.9102 16.5117 57.3555 16.8867C56.8008 17.2539 56.0859 17.5703 55.2109 17.8359C54.3359 18.1016 53.2773 18.2344 52.0352 18.2344C50.9336 18.2344 49.9297 18.0547 49.0234 17.6953C48.1172 17.3281 47.3359 16.793 46.6797 16.0898C46.0312 15.3867 45.5312 14.5273 45.1797 13.5117C44.8281 12.4883 44.6523 11.3203 44.6523 10.0078V8.94141C44.6523 7.62891 44.8203 6.46094 45.1562 5.4375C45.5 4.41406 45.9883 3.55078 46.6211 2.84766C47.2539 2.14453 48.0078 1.60938 48.8828 1.24219C49.7578 0.875 50.7305 0.691406 51.8008 0.691406C53.2852 0.691406 54.5039 0.933594 55.457 1.41797C56.4102 1.89453 57.1367 2.55859 57.6367 3.41016C58.1445 4.25391 58.457 5.22266 58.5742 6.31641H55.1641C55.0781 5.73828 54.9141 5.23438 54.6719 4.80469C54.4297 4.375 54.082 4.03906 53.6289 3.79688C53.1836 3.55469 52.6055 3.43359 51.8945 3.43359C51.3086 3.43359 50.7852 3.55469 50.3242 3.79688C49.8711 4.03125 49.4883 4.37891 49.1758 4.83984C48.8633 5.30078 48.625 5.87109 48.4609 6.55078C48.2969 7.23047 48.2148 8.01953 48.2148 8.91797V10.0078C48.2148 10.8984 48.3008 11.6875 48.4727 12.375C48.6445 13.0547 48.8984 13.6289 49.2344 14.0977C49.5781 14.5586 50 14.9062 50.5 15.1406C51 15.375 51.582 15.4922 52.2461 15.4922C52.8008 15.4922 53.2617 15.4453 53.6289 15.3516C54.0039 15.2578 54.3047 15.1445 54.5312 15.0117C54.7656 14.8711 54.9453 14.7383 55.0703 14.6133V11.5898H51.8594V9.08203H58.5859ZM68.0547 15.1406V9.49219C68.0547 9.08594 67.9883 8.73828 67.8555 8.44922C67.7227 8.15234 67.5156 7.92188 67.2344 7.75781C66.9609 7.59375 66.6055 7.51172 66.168 7.51172C65.793 7.51172 65.4688 7.57812 65.1953 7.71094C64.9219 7.83594 64.7109 8.01953 64.5625 8.26172C64.4141 8.49609 64.3398 8.77344 64.3398 9.09375H60.9648C60.9648 8.55469 61.0898 8.04297 61.3398 7.55859C61.5898 7.07422 61.9531 6.64844 62.4297 6.28125C62.9062 5.90625 63.4727 5.61328 64.1289 5.40234C64.793 5.19141 65.5352 5.08594 66.3555 5.08594C67.3398 5.08594 68.2148 5.25 68.9805 5.57812C69.7461 5.90625 70.3477 6.39844 70.7852 7.05469C71.2305 7.71094 71.4531 8.53125 71.4531 9.51562V14.9414C71.4531 15.6367 71.4961 16.207 71.582 16.6523C71.668 17.0898 71.793 17.4727 71.957 17.8008V18H68.5469C68.3828 17.6562 68.2578 17.2266 68.1719 16.7109C68.0938 16.1875 68.0547 15.6641 68.0547 15.1406ZM68.5 10.2773L68.5234 12.1875H66.6367C66.1914 12.1875 65.8047 12.2383 65.4766 12.3398C65.1484 12.4414 64.8789 12.5859 64.668 12.7734C64.457 12.9531 64.3008 13.1641 64.1992 13.4062C64.1055 13.6484 64.0586 13.9141 64.0586 14.2031C64.0586 14.4922 64.125 14.7539 64.2578 14.9883C64.3906 15.2148 64.582 15.3945 64.832 15.5273C65.082 15.6523 65.375 15.7148 65.7109 15.7148C66.2188 15.7148 66.6602 15.6133 67.0352 15.4102C67.4102 15.207 67.6992 14.957 67.9023 14.6602C68.1133 14.3633 68.2227 14.082 68.2305 13.8164L69.1211 15.2461C68.9961 15.5664 68.8242 15.8984 68.6055 16.2422C68.3945 16.5859 68.125 16.9102 67.7969 17.2148C67.4688 17.5117 67.0742 17.7578 66.6133 17.9531C66.1523 18.1406 65.6055 18.2344 64.9727 18.2344C64.168 18.2344 63.4375 18.0742 62.7812 17.7539C62.1328 17.4258 61.6172 16.9766 61.2344 16.4062C60.8594 15.8281 60.6719 15.1719 60.6719 14.4375C60.6719 13.7734 60.7969 13.1836 61.0469 12.668C61.2969 12.1523 61.6641 11.7188 62.1484 11.3672C62.6406 11.0078 63.2539 10.7383 63.9883 10.5586C64.7227 10.3711 65.5742 10.2773 66.543 10.2773H68.5ZM80.2656 5.32031V7.71094H72.8828V5.32031H80.2656ZM74.7109 2.19141H78.0859V14.1797C78.0859 14.5469 78.1328 14.8281 78.2266 15.0234C78.3281 15.2188 78.4766 15.3555 78.6719 15.4336C78.8672 15.5039 79.1133 15.5391 79.4102 15.5391C79.6211 15.5391 79.8086 15.5312 79.9727 15.5156C80.1445 15.4922 80.2891 15.4688 80.4062 15.4453L80.418 17.9297C80.1289 18.0234 79.8164 18.0977 79.4805 18.1523C79.1445 18.207 78.7734 18.2344 78.3672 18.2344C77.625 18.2344 76.9766 18.1133 76.4219 17.8711C75.875 17.6211 75.4531 17.2227 75.1562 16.6758C74.8594 16.1289 74.7109 15.4102 74.7109 14.5195V2.19141ZM85.4805 0V18H82.1055V0H85.4805ZM85 11.2148H84.0742C84.082 10.332 84.1992 9.51953 84.4258 8.77734C84.6523 8.02734 84.9766 7.37891 85.3984 6.83203C85.8203 6.27734 86.3242 5.84766 86.9102 5.54297C87.5039 5.23828 88.1602 5.08594 88.8789 5.08594C89.5039 5.08594 90.0703 5.17578 90.5781 5.35547C91.0938 5.52734 91.5352 5.80859 91.9023 6.19922C92.2773 6.58203 92.5664 7.08594 92.7695 7.71094C92.9727 8.33594 93.0742 9.09375 93.0742 9.98438V18H89.6758V9.96094C89.6758 9.39844 89.5938 8.95703 89.4297 8.63672C89.2734 8.30859 89.043 8.07812 88.7383 7.94531C88.4414 7.80469 88.0742 7.73438 87.6367 7.73438C87.1523 7.73438 86.7383 7.82422 86.3945 8.00391C86.0586 8.18359 85.7891 8.43359 85.5859 8.75391C85.3828 9.06641 85.2344 9.43359 85.1406 9.85547C85.0469 10.2773 85 10.7305 85 11.2148ZM101.477 18.2344C100.492 18.2344 99.6094 18.0781 98.8281 17.7656C98.0469 17.4453 97.3828 17.0039 96.8359 16.4414C96.2969 15.8789 95.8828 15.2266 95.5938 14.4844C95.3047 13.7344 95.1602 12.9375 95.1602 12.0938V11.625C95.1602 10.6641 95.2969 9.78516 95.5703 8.98828C95.8438 8.19141 96.2344 7.5 96.7422 6.91406C97.2578 6.32812 97.8828 5.87891 98.6172 5.56641C99.3516 5.24609 100.18 5.08594 101.102 5.08594C102 5.08594 102.797 5.23438 103.492 5.53125C104.188 5.82812 104.77 6.25 105.238 6.79688C105.715 7.34375 106.074 8 106.316 8.76562C106.559 9.52344 106.68 10.3672 106.68 11.2969V12.7031H96.6016V10.4531H103.363V10.1953C103.363 9.72656 103.277 9.30859 103.105 8.94141C102.941 8.56641 102.691 8.26953 102.355 8.05078C102.02 7.83203 101.59 7.72266 101.066 7.72266C100.621 7.72266 100.238 7.82031 99.918 8.01562C99.5977 8.21094 99.3359 8.48438 99.1328 8.83594C98.9375 9.1875 98.7891 9.60156 98.6875 10.0781C98.5938 10.5469 98.5469 11.0625 98.5469 11.625V12.0938C98.5469 12.6016 98.6172 13.0703 98.7578 13.5C98.9062 13.9297 99.1133 14.3008 99.3789 14.6133C99.6523 14.9258 99.9805 15.168 100.363 15.3398C100.754 15.5117 101.195 15.5977 101.688 15.5977C102.297 15.5977 102.863 15.4805 103.387 15.2461C103.918 15.0039 104.375 14.6406 104.758 14.1562L106.398 15.9375C106.133 16.3203 105.77 16.6875 105.309 17.0391C104.855 17.3906 104.309 17.6797 103.668 17.9062C103.027 18.125 102.297 18.2344 101.477 18.2344ZM111.977 8.08594V18H108.602V5.32031H111.777L111.977 8.08594ZM115.797 5.23828L115.738 8.36719C115.574 8.34375 115.375 8.32422 115.141 8.30859C114.914 8.28516 114.707 8.27344 114.52 8.27344C114.043 8.27344 113.629 8.33594 113.277 8.46094C112.934 8.57812 112.645 8.75391 112.41 8.98828C112.184 9.22266 112.012 9.50781 111.895 9.84375C111.785 10.1797 111.723 10.5625 111.707 10.9922L111.027 10.7812C111.027 9.96094 111.109 9.20703 111.273 8.51953C111.438 7.82422 111.676 7.21875 111.988 6.70312C112.309 6.1875 112.699 5.78906 113.16 5.50781C113.621 5.22656 114.148 5.08594 114.742 5.08594C114.93 5.08594 115.121 5.10156 115.316 5.13281C115.512 5.15625 115.672 5.19141 115.797 5.23828Z" fill="#020202"/>
<path d="M28.4453 0.9375V18H24.3438V0.9375H28.4453Z" fill="#7CD466"/>
</svg>
