<svg width="538" height="483" viewBox="0 0 538 483" fill="none" xmlns="http://www.w3.org/2000/svg">
<g filter="url(#filter0_d_1128_2750)">
<path fill-rule="evenodd" clip-rule="evenodd" d="M619.089 246.719C729.929 446.679 678.674 676.859 517.461 766.221C382.912 840.803 220.936 685.586 128.428 518.697C56.3808 388.721 87.8491 238.312 192.639 180.226C329.996 104.088 524.652 76.3489 619.089 246.719Z" fill="url(#paint0_linear_1128_2750)" fill-opacity="0.5" shape-rendering="crispEdges"/>
</g>
<g filter="url(#filter1_b_1128_2750)">
<path fill-rule="evenodd" clip-rule="evenodd" d="M271.551 572.694C174.276 397.206 219.419 195.108 361.091 116.578C479.332 51.0363 621.552 187.219 702.738 333.682C765.968 447.751 738.247 579.809 646.159 630.855C525.452 697.764 354.43 722.213 271.551 572.694Z" fill="white" fill-opacity="0.2"/>
<path d="M272.863 571.966C175.88 397.005 221.055 195.917 361.818 117.89C420.198 85.5296 484.657 102.836 544.926 146.84C605.18 190.833 660.901 261.301 701.426 334.41C764.376 447.974 736.594 579.011 645.432 629.543C585.241 662.907 512.595 685.629 444.762 681.437C377.013 677.252 314.028 646.231 272.863 571.966Z" stroke="white" stroke-width="3"/>
</g>
<defs>
<filter id="filter0_d_1128_2750" x="89.4385" y="120.451" width="589.772" height="684.984" filterUnits="userSpaceOnUse" color-interpolation-filters="sRGB">
<feFlood flood-opacity="0" result="BackgroundImageFix"/>
<feColorMatrix in="SourceAlpha" type="matrix" values="0 0 0 0 0 0 0 0 0 0 0 0 0 0 0 0 0 0 127 0" result="hardAlpha"/>
<feOffset dx="1" dy="20"/>
<feComposite in2="hardAlpha" operator="out"/>
<feColorMatrix type="matrix" values="0 0 0 0 0 0 0 0 0 0 0 0 0 0 0 0 0 0 0.25 0"/>
<feBlend mode="normal" in2="BackgroundImageFix" result="effect1_dropShadow_1128_2750"/>
<feBlend mode="normal" in="SourceGraphic" in2="effect1_dropShadow_1128_2750" result="shape"/>
</filter>
<filter id="filter1_b_1128_2750" x="199.723" y="79.6733" width="557.195" height="623.762" filterUnits="userSpaceOnUse" color-interpolation-filters="sRGB">
<feFlood flood-opacity="0" result="BackgroundImageFix"/>
<feGaussianBlur in="BackgroundImageFix" stdDeviation="10"/>
<feComposite in2="SourceAlpha" operator="in" result="effect1_backgroundBlur_1128_2750"/>
<feBlend mode="normal" in="SourceGraphic" in2="effect1_backgroundBlur_1128_2750" result="shape"/>
</filter>
<linearGradient id="paint0_linear_1128_2750" x1="504.672" y1="106.954" x2="829.495" y2="692.949" gradientUnits="userSpaceOnUse">
<stop stop-color="#7CD466"/>
<stop offset="1" stop-color="#93F9B9"/>
</linearGradient>
</defs>
</svg>
