<svg width="24" height="24" viewBox="0 0 24 24" fill="none" xmlns="http://www.w3.org/2000/svg">
<path d="M15 18.25C14.5858 18.25 14.25 18.5858 14.25 19C14.25 19.4142 14.5858 19.75 15 19.75V18.25ZM16 19V19.75V19ZM15 4.25C14.5858 4.25 14.25 4.58579 14.25 5C14.25 5.41421 14.5858 5.75 15 5.75V4.25ZM15.5315 12.5857C15.8549 12.8444 16.3269 12.792 16.5857 12.4685C16.8444 12.1451 16.792 11.6731 16.4685 11.4143L15.5315 12.5857ZM11.4685 7.41435C11.1451 7.15559 10.6731 7.20803 10.4143 7.53148C10.1556 7.85493 10.208 8.32689 10.5315 8.58565L11.4685 7.41435ZM16.4685 12.5857C16.792 12.3269 16.8444 11.8549 16.5857 11.5315C16.3269 11.208 15.8549 11.1556 15.5315 11.4143L16.4685 12.5857ZM10.5315 15.4143C10.208 15.6731 10.1556 16.1451 10.4143 16.4685C10.6731 16.792 11.1451 16.8444 11.4685 16.5857L10.5315 15.4143ZM16 12.75C16.4142 12.75 16.75 12.4142 16.75 12C16.75 11.5858 16.4142 11.25 16 11.25V12.75ZM5 11.25C4.58579 11.25 4.25 11.5858 4.25 12C4.25 12.4142 4.58579 12.75 5 12.75V11.25ZM15 19.75H16V18.25H15V19.75ZM16 19.75C18.0711 19.75 19.75 18.0711 19.75 16H18.25C18.25 17.2426 17.2426 18.25 16 18.25V19.75ZM19.75 16V8H18.25V16H19.75ZM19.75 8C19.75 5.92893 18.0711 4.25 16 4.25V5.75C17.2426 5.75 18.25 6.75736 18.25 8H19.75ZM16 4.25H15V5.75H16V4.25ZM16.4685 11.4143L11.4685 7.41435L10.5315 8.58565L15.5315 12.5857L16.4685 11.4143ZM15.5315 11.4143L10.5315 15.4143L11.4685 16.5857L16.4685 12.5857L15.5315 11.4143ZM16 11.25H5V12.75H16V11.25Z" fill="black"/>
</svg>
