<svg width="25" height="25" viewBox="0 0 25 25" fill="none" xmlns="http://www.w3.org/2000/svg">
<path fill-rule="evenodd" clip-rule="evenodd" d="M17.9165 5.34121L19.5478 6.64017C19.7053 6.78843 19.7941 6.99551 19.7929 7.21184C19.7917 7.42817 19.7007 7.63427 19.5415 7.78079L18.3019 9.26413L14.0842 14.2943C14.0104 14.3788 13.9121 14.4382 13.803 14.4641L11.6155 14.96C11.3285 14.9743 11.0786 14.7657 11.0415 14.4808V12.2329C11.0489 12.1245 11.0926 12.0218 11.1655 11.9412L15.305 7.261L16.7259 5.56413C17.007 5.19567 17.5211 5.0994 17.9165 5.34121Z" stroke="#B6B6B6" stroke-width="1.5" stroke-linecap="round" stroke-linejoin="round"/>
<path d="M12.0135 7.90479C12.4277 7.90479 12.7635 7.569 12.7635 7.15479C12.7635 6.74057 12.4277 6.40479 12.0135 6.40479V7.90479ZM9.0968 7.15479V6.40478L9.095 6.40479L9.0968 7.15479ZM5.20826 11.061H5.95826L5.95826 11.0594L5.20826 11.061ZM5.20826 16.9204L5.95826 16.922V16.9204H5.20826ZM9.0968 20.8267L9.095 21.5767H9.0968V20.8267ZM14.9301 20.8267V21.5767L14.9319 21.5767L14.9301 20.8267ZM18.8187 16.9204H18.0687L18.0687 16.922L18.8187 16.9204ZM19.5687 13.0142C19.5687 12.5999 19.2329 12.2642 18.8187 12.2642C18.4045 12.2642 18.0687 12.5999 18.0687 13.0142H19.5687ZM15.9984 6.97485C15.8403 6.59198 15.4018 6.40973 15.0189 6.56778C14.6361 6.72584 14.4538 7.16435 14.6119 7.54722L15.9984 6.97485ZM18.4639 9.99231C18.8683 9.90291 19.1237 9.50256 19.0343 9.09811C18.9449 8.69366 18.5446 8.43827 18.1401 8.52767L18.4639 9.99231ZM8.12493 17.1475C7.71071 17.1475 7.37493 17.4833 7.37493 17.8975C7.37493 18.3117 7.71071 18.6475 8.12493 18.6475V17.1475ZM15.9031 18.6475C16.3173 18.6475 16.6531 18.3117 16.6531 17.8975C16.6531 17.4833 16.3173 17.1475 15.9031 17.1475V18.6475ZM12.0135 6.40479H9.0968V7.90479H12.0135V6.40479ZM9.095 6.40479C6.52851 6.41095 4.45277 8.49615 4.45826 11.0626L5.95826 11.0594C5.95454 9.32121 7.36039 7.90896 9.0986 7.90478L9.095 6.40479ZM4.45826 11.061V16.9204H5.95826V11.061H4.45826ZM4.45826 16.9188C4.45277 19.4853 6.52851 21.5705 9.095 21.5767L9.0986 20.0767C7.36039 20.0725 5.95454 18.6602 5.95826 16.922L4.45826 16.9188ZM9.0968 21.5767H14.9301V20.0767H9.0968V21.5767ZM14.9319 21.5767C17.4984 21.5705 19.5742 19.4853 19.5687 16.9188L18.0687 16.922C18.0724 18.6602 16.6666 20.0725 14.9283 20.0767L14.9319 21.5767ZM19.5687 16.9204V13.0142H18.0687V16.9204H19.5687ZM14.6119 7.54722C14.8135 8.03561 15.2252 8.7283 15.8398 9.26304C16.468 9.80963 17.368 10.2346 18.4639 9.99231L18.1401 8.52767C17.6433 8.63751 17.2126 8.46921 16.8244 8.13143C16.4226 7.78179 16.1322 7.29896 15.9984 6.97485L14.6119 7.54722ZM8.12493 18.6475H15.9031V17.1475H8.12493V18.6475Z" fill="#B6B6B6"/>
</svg>
