<svg width="60" height="60" viewBox="0 0 60 60" fill="none" xmlns="http://www.w3.org/2000/svg">
<path fill-rule="evenodd" clip-rule="evenodd" d="M40.4175 22.5H19.5825C18.4324 22.5 17.5 23.4324 17.5 24.5825V41.25C17.5 44.7018 20.2982 47.5 23.75 47.5H36.25C37.9076 47.5 39.4973 46.8415 40.6694 45.6694C41.8415 44.4973 42.5 42.9076 42.5 41.25V24.5825C42.5 23.4324 41.5676 22.5 40.4175 22.5Z" stroke="black" stroke-width="1.5" stroke-linecap="round" stroke-linejoin="round"/>
<path fill-rule="evenodd" clip-rule="evenodd" d="M37.5 17.5L35.69 13.8825C35.2668 13.0357 34.4017 12.5005 33.455 12.5H26.545C25.5983 12.5005 24.7332 13.0357 24.31 13.8825L22.5 17.5H37.5Z" stroke="black" stroke-width="1.5" stroke-linecap="round" stroke-linejoin="round"/>
<path d="M26.5825 30.8325C26.5825 30.4183 26.2467 30.0825 25.8325 30.0825C25.4183 30.0825 25.0825 30.4183 25.0825 30.8325H26.5825ZM25.0825 39.165C25.0825 39.5792 25.4183 39.915 25.8325 39.915C26.2467 39.915 26.5825 39.5792 26.5825 39.165H25.0825ZM34.9175 30.8325C34.9175 30.4183 34.5817 30.0825 34.1675 30.0825C33.7533 30.0825 33.4175 30.4183 33.4175 30.8325H34.9175ZM33.4175 39.165C33.4175 39.5792 33.7533 39.915 34.1675 39.915C34.5817 39.915 34.9175 39.5792 34.9175 39.165H33.4175ZM37.5 16.75C37.0858 16.75 36.75 17.0858 36.75 17.5C36.75 17.9142 37.0858 18.25 37.5 18.25V16.75ZM42.5 18.25C42.9142 18.25 43.25 17.9142 43.25 17.5C43.25 17.0858 42.9142 16.75 42.5 16.75V18.25ZM22.5 18.25C22.9142 18.25 23.25 17.9142 23.25 17.5C23.25 17.0858 22.9142 16.75 22.5 16.75V18.25ZM17.5 16.75C17.0858 16.75 16.75 17.0858 16.75 17.5C16.75 17.9142 17.0858 18.25 17.5 18.25V16.75ZM25.0825 30.8325V39.165H26.5825V30.8325H25.0825ZM33.4175 30.8325V39.165H34.9175V30.8325H33.4175ZM37.5 18.25H42.5V16.75H37.5V18.25ZM22.5 16.75H17.5V18.25H22.5V16.75Z" fill="black"/>
</svg>
