<svg width="50" height="50" viewBox="0 0 50 50" fill="none" xmlns="http://www.w3.org/2000/svg">
<path d="M28.513 23.5342C29.0554 23.5342 29.4242 23.2738 29.7931 22.5796C31.1165 20.1062 32.2013 19.9327 32.7871 22.0589C33.3728 24.1417 35.5859 24.3586 35.5859 22.3409C35.5859 20.1062 32.0711 18.2838 29.5544 19.195C27.6886 19.8893 26.8208 23.5342 28.513 23.5342Z" fill="white"/>
<path d="M16.884 24.2067C16.884 22.2758 18.2074 21.4947 18.8366 23.0351C19.5525 24.7491 20.8109 25.2481 21.2882 23.9898C22.1777 21.69 17.4047 19.4337 15.2568 21.1259C14.4106 21.7985 13.6513 23.7728 13.955 24.5538C14.3239 25.5301 16.884 25.2047 16.884 24.2067Z" fill="white"/>
<path d="M18.381 35.0978C24.1955 37.6796 30.0967 36.8985 33.9803 33.0367C38.0591 28.9796 36.4971 24.7489 31.225 25.5517C30.726 25.6167 29.2507 26.1591 27.9706 26.7449C25.3671 27.9165 23.7616 28.0033 20.1601 27.1354C14.2372 25.7469 12.7185 32.6028 18.381 35.0978ZM33.3946 27.2222C34.3926 28.4806 33.9369 30.6285 32.3965 32.0821C31.3768 33.0367 31.4853 33.1235 30.7911 30.7369C30.4873 29.6738 30.1402 28.5891 30.01 28.307C29.6195 27.309 32.7003 26.3327 33.3946 27.2222ZM26.8858 28.7192C28.1659 28.3721 28.1659 28.3504 28.7517 31.1491C29.4026 34.2299 29.4025 34.2734 28.2961 34.6639C26.1482 35.4232 26.3868 35.3798 25.8661 28.9796L26.8858 28.7192ZM21.7006 28.9579H24.1087C24.1087 33.4923 24.1739 33.4272 24.4993 35.0761L23.3277 34.8591C21.527 34.5337 21.7006 34.4035 21.7006 28.9579ZM19.2272 28.2419C19.9865 28.4372 20.312 33.796 19.5743 33.796C18.8801 33.796 17.2745 31.8217 17.0576 30.6719C16.7105 28.7843 17.5783 27.808 19.2272 28.2419Z" fill="white"/>
<path d="M32.5049 11.1891C29.0987 9.47512 29.0119 10.126 32.2229 13.2502C42.268 22.9916 39.556 37.6579 27.5149 38.8512C18.164 39.7841 11.5034 34.013 11.677 25.3347C11.8071 18.4355 16.3415 11.2108 23.8049 10.3429C25.3019 10.1694 25.3453 10.126 24.6727 9.75717C23.6313 9.17138 20.5939 9.27987 18.7498 9.93075C16.3416 10.7986 13.8899 12.5776 11.9807 14.8774C7.18592 20.605 7.70666 29.6088 11.4817 34.9459C16.1897 41.6065 31.9625 42.7564 37.4949 36.8335C44.4376 29.4135 41.7907 15.8754 32.5049 11.1891Z" fill="white"/>
</svg>
