<svg width="22" height="22" viewBox="0 0 16 16" fill="none" xmlns="http://www.w3.org/2000/svg">
<path d="M7.45851 15.5262C7.74517 15.8252 8.21994 15.8352 8.51894 15.5486C8.81794 15.2619 8.82794 14.7871 8.54128 14.4881L7.45851 15.5262ZM2.3539 9.11818L1.80819 9.63271L1.81251 9.63722L2.3539 9.11818ZM2.3539 2.29918L1.82429 1.76813C1.81884 1.77356 1.81348 1.77907 1.80821 1.78466L2.3539 2.29918ZM7.57793 2.39121C7.92037 2.62426 8.38689 2.53558 8.61993 2.19314C8.85298 1.8507 8.7643 1.38418 8.42186 1.15114L7.57793 2.39121ZM7.45849 14.4882C7.17184 14.7872 7.18187 15.2619 7.48088 15.5486C7.77989 15.8352 8.25465 15.8252 8.5413 15.5262L7.45849 14.4882ZM11.8103 12.1162C12.0969 11.8172 12.0869 11.3424 11.7879 11.0558C11.4889 10.7691 11.0141 10.7791 10.7275 11.0782L11.8103 12.1162ZM7.45851 14.4881C7.17185 14.7871 7.18186 15.2619 7.48085 15.5486C7.77985 15.8352 8.25462 15.8252 8.54128 15.5262L7.45851 14.4881ZM13.6459 9.11818L14.1873 9.63724L14.1916 9.63269L13.6459 9.11818ZM13.6459 2.29918L14.1916 1.78466C14.1863 1.77907 14.181 1.77356 14.1755 1.76813L13.6459 2.29918ZM7.57793 1.15114C7.2355 1.38418 7.14681 1.8507 7.37986 2.19314C7.6129 2.53558 8.07942 2.62426 8.42186 2.39121L7.57793 1.15114ZM7.45849 15.5262C7.74514 15.8252 8.2199 15.8352 8.51891 15.5486C8.81792 15.2619 8.82795 14.7872 8.5413 14.4882L7.45849 15.5262ZM5.2723 11.0782C4.98565 10.7791 4.51089 10.7691 4.21188 11.0558C3.91287 11.3424 3.90284 11.8172 4.18949 12.1162L5.2723 11.0782ZM8.39842 1.13582C8.04752 0.915721 7.58464 1.02176 7.36454 1.37265C7.14444 1.72355 7.25047 2.18644 7.60137 2.40653L8.39842 1.13582ZM8.8919 2.49818L8.35 3.01668L8.35033 3.01703L8.8919 2.49818ZM9.53833 4.25703C9.82489 4.55613 10.2997 4.5663 10.5987 4.27974C10.8978 3.99319 10.908 3.51842 10.6215 3.21932L9.53833 4.25703ZM8.54128 14.4881L2.89528 8.59913L1.81251 9.63722L7.45851 15.5262L8.54128 14.4881ZM2.89959 8.60366C1.3668 6.978 1.3668 4.43935 2.89959 2.81369L1.80821 1.78466C-0.269402 3.98817 -0.269402 7.42918 1.80821 9.63269L2.89959 8.60366ZM2.88351 2.83023C4.14041 1.57673 6.11041 1.3925 7.57793 2.39121L8.42186 1.15114C6.3594 -0.252457 3.59074 0.00646025 1.82429 1.76813L2.88351 2.83023ZM8.5413 15.5262L11.8103 12.1162L10.7275 11.0782L7.45849 14.4882L8.5413 15.5262ZM8.54128 15.5262L14.1873 9.63722L13.1045 8.59913L7.45851 14.4881L8.54128 15.5262ZM14.1916 9.63269C16.2692 7.42918 16.2692 3.98817 14.1916 1.78466L13.1002 2.81369C14.633 4.43935 14.633 6.978 13.1002 8.60366L14.1916 9.63269ZM14.1755 1.76813C12.409 0.00646031 9.6404 -0.252457 7.57793 1.15114L8.42186 2.39121C9.88938 1.3925 11.8594 1.57673 13.1163 2.83023L14.1755 1.76813ZM8.5413 14.4882L5.2723 11.0782L4.18949 12.1162L7.45849 15.5262L8.5413 14.4882ZM7.60137 2.40653C7.87513 2.57825 8.12659 2.78319 8.35 3.01668L9.4338 1.97967C9.12481 1.65675 8.77704 1.37331 8.39842 1.13582L7.60137 2.40653ZM8.35033 3.01703L9.53833 4.25703L10.6215 3.21932L9.43346 1.97932L8.35033 3.01703Z" fill="black"/>
</svg>
