<svg width="22" height="22" viewBox="0 0 20 20" fill="none" xmlns="http://www.w3.org/2000/svg">
<path fill-rule="evenodd" clip-rule="evenodd" d="M3.90875 3.84179L7.32375 1.94179C8.98915 1.0194 11.0121 1.0194 12.6775 1.94179L16.0925 3.84179C17.7223 4.73272 18.7399 6.43818 18.75 8.29554V13.523C18.7475 14.9535 18.1491 16.3183 17.0987 17.2893C16.0849 18.2329 14.75 18.7553 13.365 18.7505H6.635C5.25 18.7553 3.91507 18.2329 2.90125 17.2893C1.85085 16.3183 1.2525 14.9535 1.25 13.523V8.29554C1.26037 6.43791 2.27851 4.73239 3.90875 3.84179Z" stroke="black" stroke-width="1.5" stroke-linecap="round" stroke-linejoin="round"/>
<path d="M7.08374 18.7505V17.0005C7.08374 15.3895 8.38967 14.0836 10.0006 14.0836C11.6116 14.0836 12.9175 15.3895 12.9175 17.0005V18.7505" stroke="black" stroke-width="1.5" stroke-linecap="round" stroke-linejoin="round"/>
</svg>
