<svg width="24" height="24" viewBox="0 0 24 24" fill="none" xmlns="http://www.w3.org/2000/svg">
<path fill-rule="evenodd" clip-rule="evenodd" d="M9.02086 18.997C6.88994 19.0639 5.10629 17.3947 5.03187 15.264V11.53L5.02687 9.664C4.89841 8.98798 5.23952 8.30986 5.85887 8.01L9.90387 5.597C11.203 4.801 12.8388 4.801 14.1379 5.597L18.1829 8.013C18.8022 8.31286 19.1433 8.99098 19.0149 9.667L19.0099 11.534V15.267C18.9338 17.3965 17.1507 19.0639 15.0209 18.997H9.02086Z" stroke="black" stroke-width="1.5" stroke-linecap="round" stroke-linejoin="round"/>
<path d="M5.40533 9.01657C5.04773 8.80754 4.58838 8.92799 4.37936 9.28559C4.17033 9.6432 4.29077 10.1025 4.64838 10.3116L5.40533 9.01657ZM9.93686 12.5341L10.3219 11.8904L10.3153 11.8866L9.93686 12.5341ZM14.1039 12.5341L13.7254 11.8865L13.7189 11.8904L14.1039 12.5341ZM19.3923 10.3116C19.7499 10.1025 19.8704 9.6432 19.6614 9.28559C19.4523 8.92799 18.993 8.80754 18.6354 9.01657L19.3923 10.3116ZM13.839 9.72468C14.2408 9.82514 14.648 9.58082 14.7485 9.17897C14.8489 8.77713 14.6046 8.36992 14.2028 8.26946L13.839 9.72468ZM12.0209 8.49707L12.2028 7.76946C12.0833 7.73961 11.9584 7.73961 11.839 7.76946L12.0209 8.49707ZM9.83895 8.26946C9.43711 8.36992 9.19279 8.77713 9.29325 9.17897C9.39371 9.58082 9.80091 9.82514 10.2028 9.72468L9.83895 8.26946ZM4.64838 10.3116L9.55838 13.1816L10.3153 11.8866L5.40533 9.01657L4.64838 10.3116ZM9.55188 13.1777C11.072 14.0869 12.9688 14.0869 14.4888 13.1777L13.7189 11.8904C12.6729 12.516 11.3678 12.516 10.3218 11.8904L9.55188 13.1777ZM14.4823 13.1816L19.3923 10.3116L18.6354 9.01657L13.7254 11.8866L14.4823 13.1816ZM14.2028 8.26946L12.2028 7.76946L11.839 9.22468L13.839 9.72468L14.2028 8.26946ZM11.839 7.76946L9.83895 8.26946L10.2028 9.72468L12.2028 9.22468L11.839 7.76946Z" fill="black"/>
</svg>
