<svg width="40" height="40" viewBox="0 0 40 40" fill="none" xmlns="http://www.w3.org/2000/svg">
<path d="M20.0086 11.4163C20.4227 11.4063 20.7503 11.0625 20.7403 10.6484C20.7303 10.2343 20.3865 9.90674 19.9724 9.91672L20.0086 11.4163ZM10.7805 20.3215H11.5305C11.5305 20.3157 11.5305 20.31 11.5303 20.3042L10.7805 20.3215ZM10.7805 24.1832L10.8186 24.9322C11.2175 24.9119 11.5305 24.5826 11.5305 24.1832H10.7805ZM10.7805 29.3332L10.7424 30.0822C10.7551 30.0828 10.7678 30.0832 10.7805 30.0832V29.3332ZM16.1022 30.0832C16.5164 30.0832 16.8522 29.7474 16.8522 29.3332C16.8522 28.919 16.5164 28.5832 16.1022 28.5832V30.0832ZM19.2405 10.6665C19.2405 11.0807 19.5763 11.4165 19.9905 11.4165C20.4047 11.4165 20.7405 11.0807 20.7405 10.6665H19.2405ZM20.7405 6.6665C20.7405 6.25229 20.4047 5.9165 19.9905 5.9165C19.5763 5.9165 19.2405 6.25229 19.2405 6.6665H20.7405ZM20.0086 9.91672C19.5945 9.90674 19.2507 10.2343 19.2407 10.6484C19.2308 11.0625 19.5584 11.4063 19.9724 11.4163L20.0086 9.91672ZM29.2005 20.3215L28.4507 20.3042C28.4506 20.31 28.4505 20.3157 28.4505 20.3215H29.2005ZM29.2005 24.1832H28.4505C28.4505 24.5826 28.7635 24.9119 29.1624 24.9322L29.2005 24.1832ZM29.2005 29.3332V30.0832C29.2132 30.0832 29.2259 30.0828 29.2386 30.0822L29.2005 29.3332ZM23.8789 28.5832C23.4646 28.5832 23.1289 28.919 23.1289 29.3332C23.1289 29.7474 23.4646 30.0832 23.8789 30.0832V28.5832ZM16.8505 29.3359C16.852 28.9217 16.5175 28.5847 16.1033 28.5832C15.6891 28.5817 15.352 28.9162 15.3505 29.3304L16.8505 29.3359ZM17.2389 32.1665L17.7797 31.6469L17.7785 31.6456L17.2389 32.1665ZM22.7389 32.1665L22.1992 31.6456L22.198 31.6469L22.7389 32.1665ZM24.6272 29.3304C24.6257 28.9162 24.2887 28.5817 23.8744 28.5832C23.4602 28.5847 23.1257 28.9217 23.1272 29.3359L24.6272 29.3304ZM16.0989 28.5832C15.6846 28.5832 15.3489 28.919 15.3489 29.3332C15.3489 29.7474 15.6846 30.0832 16.0989 30.0832V28.5832ZM23.8789 30.0832C24.2931 30.0832 24.6289 29.7474 24.6289 29.3332C24.6289 28.919 24.2931 28.5832 23.8789 28.5832V30.0832ZM19.9724 9.91672C14.3504 10.0522 9.90101 14.7166 10.0307 20.3388L11.5303 20.3042C11.4197 15.5096 15.2141 11.5319 20.0086 11.4163L19.9724 9.91672ZM10.0305 20.3215V24.1832H11.5305V20.3215H10.0305ZM10.7424 23.4341C8.97226 23.5242 7.58325 24.9857 7.58325 26.7582H9.08325C9.08325 25.7845 9.84627 24.9817 10.8186 24.9322L10.7424 23.4341ZM7.58325 26.7582C7.58325 28.5306 8.97226 29.9921 10.7424 30.0822L10.8186 28.5841C9.84627 28.5346 9.08325 27.7318 9.08325 26.7582H7.58325ZM10.7805 30.0832H16.1022V28.5832H10.7805V30.0832ZM20.7405 10.6665V6.6665H19.2405V10.6665H20.7405ZM19.9724 11.4163C24.7669 11.5319 28.5613 15.5096 28.4507 20.3042L29.9503 20.3388C30.08 14.7166 25.6306 10.0522 20.0086 9.91672L19.9724 11.4163ZM28.4505 20.3215V24.1832H29.9505V20.3215H28.4505ZM29.1624 24.9322C30.1348 24.9817 30.8978 25.7845 30.8978 26.7582H32.3978C32.3978 24.9857 31.0088 23.5242 29.2386 23.4341L29.1624 24.9322ZM30.8978 26.7582C30.8978 27.7318 30.1348 28.5346 29.1624 28.5841L29.2386 30.0822C31.0088 29.9921 32.3978 28.5306 32.3978 26.7582H30.8978ZM29.2005 28.5832H23.8789V30.0832H29.2005V28.5832ZM15.3505 29.3304C15.3459 30.5823 15.8298 31.7866 16.6992 32.6874L17.7785 31.6456C17.1803 31.0259 16.8474 30.1973 16.8505 29.3359L15.3505 29.3304ZM16.698 32.6861C17.5584 33.5818 18.7468 34.0881 19.9889 34.0881V32.5881C19.1551 32.5881 18.3573 32.2482 17.7797 31.6469L16.698 32.6861ZM19.9889 34.0881C21.2309 34.0881 22.4193 33.5818 23.2797 32.6861L22.198 31.6469C21.6204 32.2482 20.8226 32.5881 19.9889 32.5881V34.0881ZM23.2785 32.6874C24.1479 31.7866 24.6318 30.5823 24.6272 29.3304L23.1272 29.3359C23.1303 30.1973 22.7974 31.0259 22.1992 31.6456L23.2785 32.6874ZM16.0989 30.0832H23.8789V28.5832H16.0989V30.0832Z" fill="black"/>
</svg>
