<svg width="22" height="22" viewBox="0 0 18 22" fill="none" xmlns="http://www.w3.org/2000/svg">
<path fill-rule="evenodd" clip-rule="evenodd" d="M12.7167 5.33329C12.7167 7.35834 11.0709 8.99996 9.04074 8.99996C7.01055 8.99996 5.36475 7.35834 5.36475 5.33329C5.36475 3.30825 7.01055 1.66663 9.04074 1.66663C11.0709 1.66663 12.7167 3.30825 12.7167 5.33329Z" stroke="black" stroke-width="1.5" stroke-linecap="round" stroke-linejoin="round"/>
<path d="M2.43839 15.9857C2.42607 15.5717 2.08045 15.246 1.66642 15.2583C1.25239 15.2707 0.926735 15.6163 0.939052 16.0303L2.43839 15.9857ZM6.21354 20.2667V19.5167C6.20646 19.5167 6.19938 19.5168 6.19231 19.517L6.21354 20.2667ZM11.8679 20.2667L11.8891 19.517C11.882 19.5168 11.875 19.5167 11.8679 19.5167L11.8679 20.2667ZM17.1424 16.0303C17.1547 15.6163 16.829 15.2707 16.415 15.2583C16.001 15.246 15.6554 15.5717 15.643 15.9857L17.1424 16.0303ZM15.643 15.837C15.6554 16.251 16.001 16.5767 16.415 16.5643C16.829 16.552 17.1547 16.2064 17.1424 15.7924L15.643 15.837ZM11.8679 11.556V12.306C11.875 12.306 11.882 12.3059 11.8891 12.3057L11.8679 11.556ZM6.21354 11.556L6.19231 12.3057C6.19938 12.3059 6.20646 12.306 6.21354 12.306L6.21354 11.556ZM0.939052 15.7924C0.926735 16.2064 1.25239 16.552 1.66642 16.5643C2.08045 16.5767 2.42607 16.251 2.43839 15.837L0.939052 15.7924ZM0.939052 16.0303C1.02345 18.8673 3.39505 21.0968 6.23477 21.0164L6.19231 19.517C4.17626 19.5741 2.49807 17.9919 2.43839 15.9857L0.939052 16.0303ZM6.21354 21.0167H11.8679V19.5167H6.21354V21.0167ZM11.8467 21.0164C14.6864 21.0968 17.058 18.8673 17.1424 16.0303L15.643 15.9857C15.5834 17.9919 13.9052 19.5741 11.8891 19.517L11.8467 21.0164ZM17.1424 15.7924C17.058 12.9553 14.6864 10.7259 11.8467 10.8063L11.8891 12.3057C13.9052 12.2486 15.5834 13.8307 15.643 15.837L17.1424 15.7924ZM11.8679 10.806H6.21354V12.306H11.8679V10.806ZM6.23477 10.8063C3.39505 10.7259 1.02345 12.9553 0.939052 15.7924L2.43839 15.837C2.49807 13.8307 4.17626 12.2486 6.19231 12.3057L6.23477 10.8063Z" fill="black"/>
</svg>
