<svg width="22" height="22" viewBox="0 0 20 21" fill="none" xmlns="http://www.w3.org/2000/svg">
<path fill-rule="evenodd" clip-rule="evenodd" d="M16.5 1.40948L18.4575 2.96823C18.6465 3.14614 18.7531 3.39464 18.7517 3.65424C18.7503 3.91383 18.641 4.16115 18.45 4.33698L16.9625 6.11698L11.9013 12.1532C11.8127 12.2546 11.6947 12.3259 11.5638 12.357L8.93875 12.952C8.59436 12.9692 8.29455 12.7189 8.25 12.377V9.67948C8.25893 9.54943 8.31132 9.42617 8.39875 9.32948L13.3662 3.71323L15.0713 1.67698C15.4086 1.23483 16.0256 1.11931 16.5 1.40948Z" stroke="black" stroke-width="1.5" stroke-linecap="round" stroke-linejoin="round"/>
<path d="M9.41626 4.33569C9.83047 4.33569 10.1663 3.99991 10.1663 3.58569C10.1663 3.17148 9.83047 2.83569 9.41626 2.83569V4.33569ZM5.91626 3.58569V2.83569L5.91446 2.8357L5.91626 3.58569ZM1.25001 8.27319H2.00001L2.00001 8.27159L1.25001 8.27319ZM1.25001 15.3044L2.00001 15.306V15.3044H1.25001ZM5.91626 19.9919L5.91446 20.7419H5.91626V19.9919ZM12.9163 19.9919V20.7419L12.9181 20.7419L12.9163 19.9919ZM17.5825 15.3044H16.8325L16.8325 15.306L17.5825 15.3044ZM18.3325 10.6169C18.3325 10.2027 17.9967 9.86694 17.5825 9.86694C17.1683 9.86694 16.8325 10.2027 16.8325 10.6169H18.3325ZM14.0595 3.42701C13.9015 3.04413 13.4629 2.86189 13.0801 3.01994C12.6972 3.178 12.515 3.61651 12.673 3.99938L14.0595 3.42701ZM17.1244 6.84426C17.5288 6.75486 17.7842 6.35451 17.6948 5.95006C17.6054 5.54561 17.2051 5.29022 16.8006 5.37962L17.1244 6.84426ZM4.75001 15.7269C4.3358 15.7269 4.00001 16.0627 4.00001 16.4769C4.00001 16.8912 4.3358 17.2269 4.75001 17.2269V15.7269ZM14.0838 17.2269C14.498 17.2269 14.8338 16.8912 14.8338 16.4769C14.8338 16.0627 14.498 15.7269 14.0838 15.7269V17.2269ZM9.41626 2.83569H5.91626V4.33569H9.41626V2.83569ZM5.91446 2.8357C2.9175 2.8429 0.493597 5.27784 0.500013 8.2748L2.00001 8.27159C1.99537 6.1029 3.74937 4.3409 5.91806 4.33569L5.91446 2.8357ZM0.500011 8.27319V15.3044H2.00001V8.27319H0.500011ZM0.500013 15.3028C0.493597 18.2998 2.9175 20.7347 5.91446 20.7419L5.91806 19.2419C3.74937 19.2367 1.99537 17.4747 2.00001 15.306L0.500013 15.3028ZM5.91626 20.7419H12.9163V19.2419H5.91626V20.7419ZM12.9181 20.7419C15.915 20.7347 18.3389 18.2998 18.3325 15.3028L16.8325 15.306C16.8372 17.4747 15.0831 19.2367 12.9145 19.2419L12.9181 20.7419ZM18.3325 15.3044V10.6169H16.8325V15.3044H18.3325ZM12.673 3.99938C12.9082 4.56902 13.3901 5.37926 14.1063 6.00244C14.8361 6.63747 15.8693 7.12172 17.1244 6.84426L16.8006 5.37962C16.1445 5.52466 15.5808 5.29704 15.0909 4.87083C14.5874 4.43275 14.2269 3.83237 14.0595 3.42701L12.673 3.99938ZM4.75001 17.2269H14.0838V15.7269H4.75001V17.2269Z" fill="black"/>
</svg>
