<svg width="35" height="35" viewBox="0 0 42 40" fill="none" xmlns="http://www.w3.org/2000/svg">
<path fill-rule="evenodd" clip-rule="evenodd" d="M29.7039 8.54601L32.3205 10.6243C32.5732 10.8616 32.7157 11.1929 32.7138 11.539C32.7119 11.8851 32.5658 12.2149 32.3105 12.4493L30.3221 14.8227L23.5566 22.871C23.4383 23.0062 23.2806 23.1012 23.1055 23.1427L19.5966 23.936C19.1362 23.959 18.7354 23.6253 18.6759 23.1693V19.5727C18.6878 19.3993 18.7579 19.2349 18.8747 19.106L25.5149 11.6177L27.794 8.90268C28.2449 8.31314 29.0697 8.15912 29.7039 8.54601Z" stroke="white" stroke-width="1.5" stroke-linecap="round" stroke-linejoin="round"/>
<path d="M20.2349 12.1978C20.6491 12.1978 20.9849 11.862 20.9849 11.4478C20.9849 11.0335 20.6491 10.6978 20.2349 10.6978V12.1978ZM15.5564 11.4478V10.6978L15.5546 10.6978L15.5564 11.4478ZM9.31886 17.6978H10.0689L10.0689 17.6961L9.31886 17.6978ZM9.31886 27.0728L10.0689 27.0744V27.0728H9.31886ZM15.5564 33.3228L15.5546 34.0728H15.5564V33.3228ZM24.9134 33.3228V34.0728L24.9152 34.0728L24.9134 33.3228ZM31.1509 27.0728H30.4009L30.4009 27.0744L31.1509 27.0728ZM31.9009 20.8228C31.9009 20.4085 31.5652 20.0728 31.1509 20.0728C30.7367 20.0728 30.4009 20.4085 30.4009 20.8228H31.9009ZM26.208 11.3309C26.0496 10.9482 25.6109 10.7664 25.2282 10.9248C24.8454 11.0832 24.6636 11.5218 24.822 11.9046L26.208 11.3309ZM30.4837 15.5485C30.8882 15.4593 31.1438 15.0591 31.0546 14.6546C30.9654 14.2501 30.5652 13.9945 30.1607 14.0837L30.4837 15.5485ZM13.9974 27.8861C13.5832 27.8861 13.2474 28.2219 13.2474 28.6361C13.2474 29.0503 13.5832 29.3861 13.9974 29.3861V27.8861ZM26.4741 29.3861C26.8883 29.3861 27.2241 29.0503 27.2241 28.6361C27.2241 28.2219 26.8883 27.8861 26.4741 27.8861V29.3861ZM20.2349 10.6978H15.5564V12.1978H20.2349V10.6978ZM15.5546 10.6978C11.6897 10.707 8.56058 13.8397 8.56886 17.6994L10.0689 17.6961C10.0624 14.6683 12.518 12.205 15.5582 12.1978L15.5546 10.6978ZM8.56886 17.6978V27.0728H10.0689V17.6978H8.56886ZM8.56886 27.0711C8.56058 30.9308 11.6897 34.0635 15.5546 34.0728L15.5582 32.5728C12.518 32.5655 10.0624 30.1022 10.0689 27.0744L8.56886 27.0711ZM15.5564 34.0728H24.9134V32.5728H15.5564V34.0728ZM24.9152 34.0728C28.7801 34.0635 31.9092 30.9308 31.9009 27.0711L30.4009 27.0744C30.4074 30.1022 27.9518 32.5655 24.9116 32.5728L24.9152 34.0728ZM31.9009 27.0728V20.8228H30.4009V27.0728H31.9009ZM24.822 11.9046C25.1251 12.6369 25.749 13.6822 26.6707 14.4821C27.606 15.2939 28.9076 15.896 30.4837 15.5485L30.1607 14.0837C29.1819 14.2995 28.3489 13.9525 27.6539 13.3492C26.9452 12.7342 26.4429 11.8986 26.208 11.3309L24.822 11.9046ZM13.9974 29.3861H26.4741V27.8861H13.9974V29.3861Z" fill="white"/>
</svg>
