<svg width="397" height="397" viewBox="0 0 397 397" fill="none" xmlns="http://www.w3.org/2000/svg">
<path fill-rule="evenodd" clip-rule="evenodd" d="M81.7807 138.28C11.1872 241.649 77.1254 335.127 197.368 327.176C327.5 318.448 358.53 205.188 337.002 154.765C306.749 84.1715 265.052 69.0443 196.98 69.2382C159.162 69.4322 124.835 75.2503 81.7807 138.28ZM288.325 255.225C251.477 325.43 129.489 330.861 96.7134 263.758C67.4287 203.831 119.793 87.6623 200.083 86.6926C274.943 85.7229 340.301 156.316 288.325 255.225ZM257.877 177.068C250.118 183.274 248.567 183.08 237.124 174.935C231.501 170.861 223.742 174.546 223.742 181.14C223.742 197.431 262.919 201.698 277.076 186.959C289.876 173.577 273.197 164.85 257.877 177.068ZM161.682 176.68C160.131 177.455 156.447 179.589 153.537 181.529C148.689 184.825 147.914 184.825 142.483 181.917C128.713 174.74 116.108 180.752 125.417 190.062C136.083 200.728 169.441 197.431 175.064 185.214C178.361 178.62 169.635 172.995 161.682 176.68ZM184.955 207.904C150.628 215.855 132.204 256.582 162.847 256.582C172.932 256.582 175.064 254.837 180.883 242.037C193.1 214.886 231.501 220.123 231.501 249.019C231.501 256.582 246.046 261.237 254.968 256.582C266.216 250.571 247.792 221.286 227.041 211.976C216.956 207.516 195.815 205.576 184.955 207.904Z" fill="white"/>
</svg>
