<svg width="24" height="24" viewBox="0 0 24 24" fill="none" xmlns="http://www.w3.org/2000/svg">
<path fill-rule="evenodd" clip-rule="evenodd" d="M19 7.187V16.24C19 16.7536 18.7744 17.2413 18.383 17.5738C17.9916 17.9063 17.4738 18.0501 16.967 17.967L14.722 17.6L9.278 19L6.468 18.54C5.6216 18.4018 5.00006 17.6706 5 16.813V7.76C4.99999 7.24641 5.22559 6.75874 5.61702 6.42623C6.00844 6.09372 6.52617 5.94995 7.033 6.033L9.278 6.4L14.722 5L17.532 5.46C18.3784 5.5982 18.9999 6.3294 19 7.187Z" stroke="black" stroke-width="1.5" stroke-linecap="round" stroke-linejoin="round"/>
<path d="M10.0283 6.4C10.0283 5.98579 9.69253 5.65 9.27832 5.65C8.86411 5.65 8.52832 5.98579 8.52832 6.4H10.0283ZM8.52832 19C8.52832 19.4142 8.86411 19.75 9.27832 19.75C9.69253 19.75 10.0283 19.4142 10.0283 19H8.52832ZM15.4723 5C15.4723 4.58579 15.1365 4.25 14.7223 4.25C14.3081 4.25 13.9723 4.58579 13.9723 5H15.4723ZM13.9723 17.6C13.9723 18.0142 14.3081 18.35 14.7223 18.35C15.1365 18.35 15.4723 18.0142 15.4723 17.6H13.9723ZM8.52832 6.4V19H10.0283V6.4H8.52832ZM13.9723 5V17.6H15.4723V5H13.9723Z" fill="black"/>
</svg>
