<svg width="136" height="23" viewBox="0 0 136 23" fill="none" xmlns="http://www.w3.org/2000/svg">
<path d="M5.58528 18V4.368H0.209281V1.2H14.8493V4.368H9.47328V18H5.58528ZM16.396 18V5.088H19.972V8.736L19.468 7.68C19.852 6.768 20.468 6.08 21.316 5.616C22.164 5.136 23.196 4.896 24.412 4.896V8.352C24.252 8.336 24.108 8.328 23.98 8.328C23.852 8.312 23.716 8.304 23.572 8.304C22.548 8.304 21.716 8.6 21.076 9.192C20.452 9.768 20.14 10.672 20.14 11.904V18H16.396ZM42.7545 18.192C41.6665 18.192 40.7145 17.952 39.8985 17.472C39.0825 16.992 38.4425 16.264 37.9785 15.288C37.5305 14.296 37.3065 13.048 37.3065 11.544C37.3065 10.024 37.5225 8.776 37.9545 7.8C38.3865 6.824 39.0105 6.096 39.8265 5.616C40.6425 5.136 41.6185 4.896 42.7545 4.896C43.9705 4.896 45.0585 5.176 46.0185 5.736C46.9945 6.28 47.7625 7.048 48.3225 8.04C48.8985 9.032 49.1865 10.2 49.1865 11.544C49.1865 12.904 48.8985 14.08 48.3225 15.072C47.7625 16.064 46.9945 16.832 46.0185 17.376C45.0585 17.92 43.9705 18.192 42.7545 18.192ZM35.1225 22.656V5.088H38.6985V7.728L38.6265 11.568L38.8665 15.384V22.656H35.1225ZM42.1065 15.12C42.7305 15.12 43.2825 14.976 43.7625 14.688C44.2585 14.4 44.6505 13.992 44.9385 13.464C45.2425 12.92 45.3945 12.28 45.3945 11.544C45.3945 10.792 45.2425 10.152 44.9385 9.624C44.6505 9.096 44.2585 8.688 43.7625 8.4C43.2825 8.112 42.7305 7.968 42.1065 7.968C41.4825 7.968 40.9225 8.112 40.4265 8.4C39.9305 8.688 39.5385 9.096 39.2505 9.624C38.9625 10.152 38.8185 10.792 38.8185 11.544C38.8185 12.28 38.9625 12.92 39.2505 13.464C39.5385 13.992 39.9305 14.4 40.4265 14.688C40.9225 14.976 41.4825 15.12 42.1065 15.12ZM60.0688 18.288C58.7408 18.288 57.5168 18.08 56.3968 17.664C55.2928 17.232 54.3248 16.624 53.4928 15.84C52.6768 15.056 52.0368 14.136 51.5728 13.08C51.1248 12.024 50.9008 10.864 50.9008 9.6C50.9008 8.336 51.1248 7.176 51.5728 6.12C52.0368 5.064 52.6848 4.144 53.5168 3.36C54.3488 2.576 55.3248 1.976 56.4448 1.56C57.5648 1.128 58.7968 0.912 60.1408 0.912C61.6288 0.912 62.9648 1.16 64.1488 1.656C65.3488 2.152 66.3568 2.872 67.1728 3.816L64.6768 6.12C64.0688 5.48 63.4048 5.008 62.6848 4.704C61.9648 4.384 61.1808 4.224 60.3328 4.224C59.5168 4.224 58.7728 4.352 58.1008 4.608C57.4288 4.864 56.8448 5.232 56.3488 5.712C55.8688 6.192 55.4928 6.76 55.2208 7.416C54.9648 8.072 54.8368 8.8 54.8368 9.6C54.8368 10.384 54.9648 11.104 55.2208 11.76C55.4928 12.416 55.8688 12.992 56.3488 13.488C56.8448 13.968 57.4208 14.336 58.0768 14.592C58.7488 14.848 59.4848 14.976 60.2848 14.976C61.0528 14.976 61.7968 14.856 62.5168 14.616C63.2528 14.36 63.9648 13.936 64.6528 13.344L66.8608 16.152C65.9488 16.84 64.8848 17.368 63.6688 17.736C62.4688 18.104 61.2688 18.288 60.0688 18.288ZM63.3088 15.648V9.336H66.8608V16.152L63.3088 15.648ZM78.1285 18V15.48L77.8885 14.928V10.416C77.8885 9.616 77.6405 8.992 77.1445 8.544C76.6645 8.096 75.9205 7.872 74.9125 7.872C74.2245 7.872 73.5445 7.984 72.8725 8.208C72.2165 8.416 71.6565 8.704 71.1925 9.072L69.8485 6.456C70.5525 5.96 71.4005 5.576 72.3925 5.304C73.3845 5.032 74.3925 4.896 75.4165 4.896C77.3845 4.896 78.9125 5.36 80.0005 6.288C81.0885 7.216 81.6325 8.664 81.6325 10.632V18H78.1285ZM74.1925 18.192C73.1845 18.192 72.3205 18.024 71.6005 17.688C70.8805 17.336 70.3285 16.864 69.9445 16.272C69.5605 15.68 69.3685 15.016 69.3685 14.28C69.3685 13.512 69.5525 12.84 69.9205 12.264C70.3045 11.688 70.9045 11.24 71.7205 10.92C72.5365 10.584 73.6005 10.416 74.9125 10.416H78.3445V12.6H75.3205C74.4405 12.6 73.8325 12.744 73.4965 13.032C73.1765 13.32 73.0165 13.68 73.0165 14.112C73.0165 14.592 73.2005 14.976 73.5685 15.264C73.9525 15.536 74.4725 15.672 75.1285 15.672C75.7525 15.672 76.3125 15.528 76.8085 15.24C77.3045 14.936 77.6645 14.496 77.8885 13.92L78.4645 15.648C78.1925 16.48 77.6965 17.112 76.9765 17.544C76.2565 17.976 75.3285 18.192 74.1925 18.192ZM90.301 18.192C88.781 18.192 87.597 17.808 86.749 17.04C85.901 16.256 85.477 15.096 85.477 13.56V2.232H89.221V13.512C89.221 14.056 89.365 14.48 89.653 14.784C89.941 15.072 90.333 15.216 90.829 15.216C91.421 15.216 91.925 15.056 92.341 14.736L93.349 17.376C92.965 17.648 92.501 17.856 91.957 18C91.429 18.128 90.877 18.192 90.301 18.192ZM83.485 8.256V5.376H92.437V8.256H83.485ZM103.299 4.896C104.323 4.896 105.235 5.104 106.035 5.52C106.851 5.92 107.491 6.544 107.955 7.392C108.419 8.224 108.651 9.296 108.651 10.608V18H104.907V11.184C104.907 10.144 104.675 9.376 104.211 8.88C103.763 8.384 103.123 8.136 102.291 8.136C101.699 8.136 101.163 8.264 100.683 8.52C100.219 8.76 99.8507 9.136 99.5787 9.648C99.3227 10.16 99.1947 10.816 99.1947 11.616V18H95.4507V0.191999H99.1947V8.664L98.3547 7.584C98.8187 6.72 99.4827 6.056 100.347 5.592C101.211 5.128 102.195 4.896 103.299 4.896ZM118.546 18.192C117.074 18.192 115.778 17.904 114.658 17.328C113.554 16.752 112.698 15.968 112.09 14.976C111.482 13.968 111.178 12.824 111.178 11.544C111.178 10.248 111.474 9.104 112.066 8.112C112.674 7.104 113.498 6.32 114.538 5.76C115.578 5.184 116.754 4.896 118.066 4.896C119.33 4.896 120.466 5.168 121.474 5.712C122.498 6.24 123.306 7.008 123.898 8.016C124.49 9.008 124.786 10.2 124.786 11.592C124.786 11.736 124.778 11.904 124.762 12.096C124.746 12.272 124.73 12.44 124.714 12.6H114.226V10.416H122.746L121.306 11.064C121.306 10.392 121.17 9.808 120.898 9.312C120.626 8.816 120.25 8.432 119.77 8.16C119.29 7.872 118.73 7.728 118.09 7.728C117.45 7.728 116.882 7.872 116.386 8.16C115.906 8.432 115.53 8.824 115.258 9.336C114.986 9.832 114.85 10.424 114.85 11.112V11.688C114.85 12.392 115.002 13.016 115.306 13.56C115.626 14.088 116.066 14.496 116.626 14.784C117.202 15.056 117.874 15.192 118.642 15.192C119.33 15.192 119.93 15.088 120.442 14.88C120.97 14.672 121.45 14.36 121.882 13.944L123.874 16.104C123.282 16.776 122.538 17.296 121.642 17.664C120.746 18.016 119.714 18.192 118.546 18.192ZM127.279 18V5.088H130.855V8.736L130.351 7.68C130.735 6.768 131.351 6.08 132.199 5.616C133.047 5.136 134.079 4.896 135.295 4.896V8.352C135.135 8.336 134.991 8.328 134.863 8.328C134.735 8.312 134.599 8.304 134.455 8.304C133.431 8.304 132.599 8.6 131.959 9.192C131.335 9.768 131.023 10.672 131.023 11.904V18H127.279Z" fill="white"/>
<path d="M26.3719 18V1.2H32.0359V18H26.3719Z" fill="#7CD466"/>
</svg>
