<svg width="30" height="30" viewBox="0 0 30 30" fill="none" xmlns="http://www.w3.org/2000/svg">
<path fill-rule="evenodd" clip-rule="evenodd" d="M8.90875 8.84179L12.3238 6.94179C13.9891 6.0194 16.0121 6.0194 17.6775 6.94179L21.0925 8.84179C22.7223 9.73272 23.7399 11.4382 23.75 13.2955V18.523C23.7475 19.9535 23.1491 21.3183 22.0987 22.2893C21.0849 23.2329 19.75 23.7553 18.365 23.7505H11.635C10.25 23.7553 8.91507 23.2329 7.90125 22.2893C6.85085 21.3183 6.2525 19.9535 6.25 18.523V13.2955C6.26037 11.4379 7.27851 9.73239 8.90875 8.84179Z" stroke="white" stroke-width="1.5" stroke-linecap="round" stroke-linejoin="round"/>
<path d="M12.0837 23.7506V22.0006C12.0837 20.3897 13.3897 19.0837 15.0006 19.0837C16.6116 19.0837 17.9175 20.3897 17.9175 22.0006V23.7506" stroke="white" stroke-width="1.5" stroke-linecap="round" stroke-linejoin="round"/>
</svg>
